<svg xmlns="http://www.w3.org/2000/svg" width="80mm" height="80mm" viewBox="0 0 100 100">
<title>Portret feminin · contur curat</title>
<g fill="none" stroke="black" stroke-width="0.45" stroke-linecap="round" stroke-linejoin="round">
<path d="M 27,49 C 19,34 23,17 37,13 C 54,5 72,18 73,34 C 74,46 71,59 77,70"/>
<path d="M 27,40 C 28,29 39,29 44,20 C 47,30 61,31 67,38"/>
<path d="M 28,41 C 27,53 31,64 39,70 C 44,74 49,74 55,70 C 63,64 67,53 66,40"/>
<path d="M 27,44 C 19,39 22,54 29,55 M 67,44 C 74,40 72,53 65,55"/>
<path d="M 32,41 Q 37,38 42,41 M 52,41 Q 57,38 62,41"/>
<path d="M 32,46 Q 37,42 42,46 Q 37,49 32,46 M 52,46 Q 57,42 62,46 Q 57,49 52,46"/>
<path d="M 37,44 L 37,47 M 57,44 L 57,47"/>
<path d="M 47,46 C 47,51 44,54 45,56 Q 48,58 51,55"/>
<path d="M 40,62 Q 44,59 47,61 Q 50,59 55,61 M 40,62 Q 48,67 55,61"/>
<path d="M 37,69 L 37,77 C 30,81 20,80 15,91 M 57,69 L 58,77 C 64,81 76,80 82,91"/>
<path d="M 37,77 Q 46,89 58,77 M 24,55 C 22,68 29,76 24,81 M 69,56 Q 65,70 70,78"/>
<path d="M 24,90 Q 25,86 29,85 M 69,85 Q 74,87 74,91"/>
</g>
</svg>
